<svg id="Callout_intro_image" data-name="Callout intro image" xmlns="http://www.w3.org/2000/svg" width="379.754" height="377" viewBox="0 0 379.754 377">
  <defs>
    <style>
      .cls-1 {
        fill: #ef476f;
      }

      .cls-2 {
        fill: #e6e6e6;
      }

      .cls-10, .cls-3 {
        fill: #fff;
      }

      .cls-4 {
        fill: #eec643;
      }

      .cls-5 {
        opacity: 0.2;
      }

      .cls-6 {
        fill: #ffb8b8;
      }

      .cls-7 {
        fill: #575a89;
      }

      .cls-8 {
        fill: #2f2e41;
      }

      .cls-9 {
        fill: #3f3d56;
      }

      .cls-10 {
        font-size: 35px;
        font-family: Roboto-Bold, Roboto;
        font-weight: 700;
        letter-spacing: 0.002em;
      }
    </style>
  </defs>
  <ellipse id="Background_circle" data-name="Background circle" class="cls-1" cx="188.5" cy="151.5" rx="188.5" ry="151.5" transform="translate(2.754 32)"/>
  <g id="undraw_shopping_app_flsj" transform="translate(0 0)">
    <path id="Caminho_3663" data-name="Caminho 3663" class="cls-2" d="M204.237,99.343H202.66V56.119A25.017,25.017,0,0,0,177.642,31.1H86.066A25.017,25.017,0,0,0,61.049,56.119V293.251a25.017,25.017,0,0,0,25.017,25.017h91.577a25.017,25.017,0,0,0,25.017-25.017V130.111h1.578Z" transform="translate(-61.049 -31.102)"/>
    <path id="Caminho_3664" data-name="Caminho 3664" class="cls-3" d="M178.652,37.61H166.7a8.876,8.876,0,0,1-8.218,12.228H106.017A8.876,8.876,0,0,1,97.8,37.61H86.634A18.683,18.683,0,0,0,67.952,56.293V293.077A18.682,18.682,0,0,0,86.634,311.76h92.017a18.683,18.683,0,0,0,18.683-18.683V56.293A18.683,18.683,0,0,0,178.652,37.61Z" transform="translate(-61.049 -31.102)"/>
    <path id="Caminho_3665" data-name="Caminho 3665" class="cls-2" d="M105.533,85.746h-5.494a.728.728,0,0,0-.728.728v2.412a.728.728,0,0,0,.728.728h.91v3.613h3.673V89.615h.91a.728.728,0,0,0,.728-.728V86.475A.728.728,0,0,0,105.533,85.746Z" transform="translate(-61.049 -31.102)"/>
    <path id="Caminho_3666" data-name="Caminho 3666" class="cls-2" d="M111.036,107.816a28.246,28.246,0,0,1-4.914-16.747.6.6,0,0,0-.465-.594V89.433h-5.8v1.028h-.08a.6.6,0,0,0-.595.6q0,.022,0,.043a25.778,25.778,0,0,1-4.631,17.144,1.641,1.641,0,0,0-.3.994l.634,19.626a1.7,1.7,0,0,0,1.684,1.64H109.7a1.7,1.7,0,0,0,1.685-1.669l.244-19.055A3.439,3.439,0,0,0,111.036,107.816Z" transform="translate(-61.049 -31.102)"/>
    <path id="Caminho_3667" data-name="Caminho 3667" class="cls-3" d="M108.958,114.335H97.535a1.173,1.173,0,0,0-1.159,1.351L98.1,126.908h9.913l2.1-11.183a1.173,1.173,0,0,0-1.153-1.389Z" transform="translate(-61.049 -31.102)"/>
    <path id="Caminho_3668" data-name="Caminho 3668" class="cls-2" d="M166.693,144.539H161.2a.728.728,0,0,0-.728.728v2.412a.728.728,0,0,0,.728.728h.91v3.613h3.673v-3.613h.91a.728.728,0,0,0,.728-.728v-2.412a.728.728,0,0,0-.728-.728Z" transform="translate(-61.049 -31.102)"/>
    <path id="Caminho_3669" data-name="Caminho 3669" class="cls-2" d="M172.2,166.609a28.246,28.246,0,0,1-4.914-16.747.6.6,0,0,0-.465-.594v-1.042h-5.8v1.028h-.08a.6.6,0,0,0-.595.6q0,.022,0,.043a25.778,25.778,0,0,1-4.631,17.144,1.641,1.641,0,0,0-.3.994l.634,19.626a1.7,1.7,0,0,0,1.684,1.64h13.124a1.7,1.7,0,0,0,1.685-1.669l.245-19.055a3.439,3.439,0,0,0-.591-1.964Z" transform="translate(-61.049 -31.102)"/>
    <path id="Caminho_3670" data-name="Caminho 3670" class="cls-3" d="M170.118,173.128H158.694a1.173,1.173,0,0,0-1.159,1.351l1.726,11.221h9.913l2.1-11.183a1.173,1.173,0,0,0-1.153-1.389Z" transform="translate(-61.049 -31.102)"/>
    <path id="Caminho_3671" data-name="Caminho 3671" class="cls-2" d="M97.809,227.654H95.2a.346.346,0,0,0-.346.346v1.144a.346.346,0,0,0,.346.346h.432V231.2h1.742v-1.714h.432a.345.345,0,0,0,.346-.345V228a.346.346,0,0,0-.346-.345Z" transform="translate(-61.049 -31.102)"/>
    <path id="Caminho_3672" data-name="Caminho 3672" class="cls-2" d="M100.419,238.123a13.4,13.4,0,0,1-2.331-7.944.283.283,0,0,0-.221-.282V229.4H95.115v.487h-.038a.282.282,0,0,0-.282.283q0,.01,0,.021a12.228,12.228,0,0,1-2.2,8.132.778.778,0,0,0-.141.472l.3,9.31a.806.806,0,0,0,.8.778h6.225a.806.806,0,0,0,.8-.792l.116-9.039A1.631,1.631,0,0,0,100.419,238.123Z" transform="translate(-61.049 -31.102)"/>
    <rect id="Retângulo_1308" data-name="Retângulo 1308" class="cls-3" width="5.94" height="2.97" transform="translate(32.534 210.443)"/>
    <path id="Caminho_3673" data-name="Caminho 3673" class="cls-2" d="M109.94,227.654h-2.606a.346.346,0,0,0-.346.346v1.144a.346.346,0,0,0,.346.346h.432V231.2h1.742v-1.714h.432a.345.345,0,0,0,.346-.345V228a.346.346,0,0,0-.346-.345Z" transform="translate(-61.049 -31.102)"/>
    <path id="Caminho_3674" data-name="Caminho 3674" class="cls-2" d="M112.551,238.123a13.4,13.4,0,0,1-2.331-7.944A.283.283,0,0,0,110,229.9V229.4h-2.752v.487h-.038a.282.282,0,0,0-.282.283q0,.01,0,.021a12.228,12.228,0,0,1-2.2,8.132.778.778,0,0,0-.141.472l.3,9.31a.806.806,0,0,0,.8.778h6.225a.806.806,0,0,0,.8-.792l.116-9.039A1.631,1.631,0,0,0,112.551,238.123Z" transform="translate(-61.049 -31.102)"/>
    <rect id="Retângulo_1309" data-name="Retângulo 1309" class="cls-3" width="5.94" height="2.97" transform="translate(44.666 210.443)"/>
    <path id="Caminho_3675" data-name="Caminho 3675" class="cls-2" d="M122.072,227.654h-2.606a.346.346,0,0,0-.346.346v1.144a.346.346,0,0,0,.346.346h.432V231.2h1.742v-1.714h.432a.345.345,0,0,0,.346-.345V228a.346.346,0,0,0-.346-.345Z" transform="translate(-61.049 -31.102)"/>
    <path id="Caminho_3676" data-name="Caminho 3676" class="cls-2" d="M124.682,238.123a13.4,13.4,0,0,1-2.331-7.944.283.283,0,0,0-.221-.282V229.4h-2.752v.487h-.038a.282.282,0,0,0-.282.283q0,.01,0,.021a12.228,12.228,0,0,1-2.2,8.132.778.778,0,0,0-.141.472l.3,9.31a.806.806,0,0,0,.8.778h6.225a.806.806,0,0,0,.8-.792l.116-9.039A1.631,1.631,0,0,0,124.682,238.123Z" transform="translate(-61.049 -31.102)"/>
    <rect id="Retângulo_1310" data-name="Retângulo 1310" class="cls-3" width="5.94" height="2.97" transform="translate(56.798 210.443)"/>
    <path id="Caminho_3677" data-name="Caminho 3677" class="cls-2" d="M157.148,204.909h-5.494a.728.728,0,0,0-.728.728v2.412a.728.728,0,0,0,.728.728h.91v3.613h3.673v-3.613h.91a.728.728,0,0,0,.728-.728v-2.412A.728.728,0,0,0,157.148,204.909Z" transform="translate(-61.049 -31.102)"/>
    <path id="Caminho_3678" data-name="Caminho 3678" class="cls-2" d="M162.651,226.98a28.246,28.246,0,0,1-4.914-16.747.6.6,0,0,0-.465-.594V208.6h-5.8v1.028h-.08a.6.6,0,0,0-.595.6q0,.022,0,.043a25.778,25.778,0,0,1-4.631,17.144,1.641,1.641,0,0,0-.3.994l.634,19.626a1.7,1.7,0,0,0,1.684,1.64h13.124A1.7,1.7,0,0,0,163,248l.244-19.055a3.439,3.439,0,0,0-.591-1.964Z" transform="translate(-61.049 -31.102)"/>
    <path id="Caminho_3679" data-name="Caminho 3679" class="cls-3" d="M160.574,233.5H149.15a1.173,1.173,0,0,0-1.159,1.351l1.726,11.221h9.913l2.1-11.183a1.173,1.173,0,0,0-1.153-1.389Z" transform="translate(-61.049 -31.102)"/>
    <path id="Caminho_3680" data-name="Caminho 3680" class="cls-2" d="M160.148,133.03H127.4c2.29-12.379,1.763-27.328,0-43.4h32.75C158.432,105.7,157.919,120.651,160.148,133.03Z" transform="translate(-61.049 -31.102)"/>
    <circle id="Elipse_1" data-name="Elipse 1" class="cls-3" cx="7.892" cy="7.892" r="7.892" transform="translate(75.03 71.152)"/>
    <path id="Caminho_3681" data-name="Caminho 3681" class="cls-2" d="M130.16,190.639H97.409c2.29-12.379,1.763-27.328,0-43.4h32.75C128.444,163.311,127.931,178.26,130.16,190.639Z" transform="translate(-61.049 -31.102)"/>
    <circle id="Elipse_2" data-name="Elipse 2" class="cls-3" cx="7.892" cy="7.892" r="7.892" transform="translate(45.041 128.76)"/>
    <path id="Caminho_3682" data-name="Caminho 3682" class="cls-2" d="M178.693,135.793h-32.75c2.29-12.379,1.763-27.328,0-43.4h32.75C176.977,108.465,176.464,123.413,178.693,135.793Z" transform="translate(-61.049 -31.102)"/>
    <circle id="Elipse_3" data-name="Elipse 3" class="cls-3" cx="7.892" cy="7.892" r="7.892" transform="translate(93.575 73.914)"/>
    <path id="Caminho_3683" data-name="Caminho 3683" class="cls-2" d="M178.693,133.82h-32.75c2.29-12.379,1.763-27.328,0-43.4h32.75C176.977,106.492,176.464,121.441,178.693,133.82Z" transform="translate(-61.049 -31.102)"/>
    <circle id="Elipse_4" data-name="Elipse 4" class="cls-3" cx="7.892" cy="7.892" r="7.892" transform="translate(93.575 71.94)"/>
    <path id="Caminho_3684" data-name="Caminho 3684" class="cls-2" d="M178.693,135.793h-32.75c2.29-12.379,1.763-27.328,0-43.4h32.75C176.977,108.465,176.464,123.413,178.693,135.793Z" transform="translate(-61.049 -31.102)"/>
    <circle id="Elipse_5" data-name="Elipse 5" class="cls-3" cx="7.892" cy="7.892" r="7.892" transform="translate(93.575 73.914)"/>
    <rect id="Retângulo_1311" data-name="Retângulo 1311" class="cls-2" width="107.326" height="11.837" transform="translate(17.816 99.561)"/>
    <rect id="Retângulo_1312" data-name="Retângulo 1312" class="cls-2" width="107.326" height="11.837" transform="translate(17.816 158.354)"/>
    <rect id="Retângulo_1313" data-name="Retângulo 1313" class="cls-2" width="107.326" height="11.837" transform="translate(17.816 217.146)"/>
    <path id="Caminho_3685" data-name="Caminho 3685" class="cls-4" d="M372.888,296.272,346.15,277.36c9.018-8.785,17.22-21.293,25.064-35.436l26.738,18.912C387.267,272.97,378.216,284.878,372.888,296.272Z" transform="translate(-61.049 -31.102)"/>
    <circle id="Elipse_6" data-name="Elipse 6" class="cls-3" cx="7.892" cy="7.892" r="7.892" transform="translate(303.955 229.252)"/>
    <path id="Caminho_3686" data-name="Caminho 3686" class="cls-2" d="M243.906,209.974h-2.935a.389.389,0,0,0-.389.389v1.288a.389.389,0,0,0,.389.389h.486v1.93h1.962v-1.93h.486a.389.389,0,0,0,.389-.389v-1.288a.389.389,0,0,0-.389-.389Z" transform="translate(-61.049 -31.102)"/>
    <path id="Caminho_3687" data-name="Caminho 3687" class="cls-4" d="M246.845,221.764a15.09,15.09,0,0,1-2.625-8.946.318.318,0,0,0-.248-.318v-.557h-3.1v.549h-.043a.318.318,0,0,0-.318.318c0,.008,0,.015,0,.023a13.771,13.771,0,0,1-2.474,9.158.876.876,0,0,0-.159.531l.339,10.485a.908.908,0,0,0,.9.876h7.011a.908.908,0,0,0,.9-.891l.131-10.18A1.837,1.837,0,0,0,246.845,221.764Z" transform="translate(-61.049 -31.102)"/>
    <path id="Caminho_3688" data-name="Caminho 3688" class="cls-5" d="M243.294,210.394a.84.84,0,0,1-1.679,0" transform="translate(-61.049 -31.102)"/>
    <rect id="Retângulo_1314" data-name="Retângulo 1314" class="cls-3" width="5.919" height="3.946" transform="translate(178.513 192.682)"/>
    <path id="Caminho_3689" data-name="Caminho 3689" class="cls-2" d="M336.786,250.933h-5.494a.728.728,0,0,0-.728.728v2.411a.728.728,0,0,0,.728.728h.91v3.613h3.673V254.8h.91a.728.728,0,0,0,.728-.728v-2.412a.728.728,0,0,0-.728-.728Z" transform="translate(-61.049 -31.102)"/>
    <path id="Caminho_3690" data-name="Caminho 3690" class="cls-4" d="M342.289,273a28.246,28.246,0,0,1-4.914-16.747.6.6,0,0,0-.465-.594V254.62h-5.8v1.028h-.08a.6.6,0,0,0-.595.6q0,.022,0,.043A25.778,25.778,0,0,1,325.8,273.43a1.641,1.641,0,0,0-.3.994l.634,19.626a1.7,1.7,0,0,0,1.684,1.64H340.95a1.7,1.7,0,0,0,1.685-1.669l.245-19.055A3.439,3.439,0,0,0,342.289,273Z" transform="translate(-61.049 -31.102)"/>
    <path id="Caminho_3691" data-name="Caminho 3691" class="cls-5" d="M335.641,251.718a1.572,1.572,0,1,1-3.143,0" transform="translate(-61.049 -31.102)"/>
    <path id="Caminho_3692" data-name="Caminho 3692" class="cls-3" d="M340.211,279.522H328.788a1.173,1.173,0,0,0-1.159,1.351l1.726,11.221h9.913l2.1-11.183a1.173,1.173,0,0,0-1.153-1.389Z" transform="translate(-61.049 -31.102)"/>
    <path id="Caminho_3693" data-name="Caminho 3693" class="cls-4" d="M321.11,296.241H288.36c2.29-12.379,1.763-27.328,0-43.4h32.75C319.394,268.913,318.882,283.861,321.11,296.241Z" transform="translate(-61.049 -31.102)"/>
    <circle id="Elipse_7" data-name="Elipse 7" class="cls-3" cx="7.892" cy="7.892" r="7.892" transform="translate(235.992 234.362)"/>
    <path id="Caminho_3694" data-name="Caminho 3694" class="cls-6" d="M126.106,128.541l7.352-.668,4.679-11.362-8.355-4.679Z"/>
    <path id="Caminho_3695" data-name="Caminho 3695" class="cls-6" d="M254.628,190.836h0a4.146,4.146,0,0,0-3.6-5.681l-11.415-.681-1.681,5.589,11.751,3.227A4.146,4.146,0,0,0,254.628,190.836Z" transform="translate(-61.049 -31.102)"/>
    <path id="Caminho_3696" data-name="Caminho 3696" class="cls-7" d="M242.371,193.384l-.126-10.488-25.356-4.046-19.534-22.4a6.394,6.394,0,0,0-8.333-1.14h0a6.394,6.394,0,0,0-1.114,9.753l16.115,19.832Z" transform="translate(-61.049 -31.102)"/>
    <path id="Caminho_3697" data-name="Caminho 3697" class="cls-8" d="M181.473,311.365h6.684l16.578-74.954,17.175,23.155,10.026,50.128h6.35l-1.337-53.8-22.391-57.48H192.5c-6.027,10.908-10.756,22.153-5.347,33.753Z" transform="translate(-61.049 -31.102)"/>
    <path id="Caminho_3698" data-name="Caminho 3698" class="cls-8" d="M227.838,315.917a1.744,1.744,0,0,0,1.36,2.238l16.355,2.9a2.691,2.691,0,0,0,3.053-1.844h0a2.674,2.674,0,0,0-1.308-3.18,25.007,25.007,0,0,1-9.02-7.842c-1.8,1.674-3.807,1.516-5.94.283l-2.263.283Z" transform="translate(-61.049 -31.102)"/>
    <path id="Caminho_3699" data-name="Caminho 3699" class="cls-8" d="M178.379,315.917a1.744,1.744,0,0,0,1.36,2.238l16.355,2.9a2.691,2.691,0,0,0,3.053-1.844h0a2.674,2.674,0,0,0-1.308-3.18,25.007,25.007,0,0,1-9.02-7.842c-1.8,1.674-3.807,1.516-5.94.283l-2.263.283Z" transform="translate(-61.049 -31.102)"/>
    <circle id="Elipse_8" data-name="Elipse 8" class="cls-6" cx="9.357" cy="9.357" r="9.357" transform="translate(128.946 101.973)"/>
    <path id="Caminho_3700" data-name="Caminho 3700" class="cls-7" d="M191,200.915l24.4-.668L208.229,177.7c4.452-7.138-.029-14.268-6.37-21.4l-5.013-3.342-8.021-.668h0a19.69,19.69,0,0,0-5.3,13.717A88.36,88.36,0,0,0,191,200.915Z" transform="translate(-61.049 -31.102)"/>
    <path id="Caminho_3701" data-name="Caminho 3701" class="cls-6" d="M247.048,216.093h0a4.146,4.146,0,0,0-1.076-6.639l-10.227-5.117L232,208.815l9.534,7.59a4.146,4.146,0,0,0,5.512-.311Z" transform="translate(-61.049 -31.102)"/>
    <path id="Caminho_3702" data-name="Caminho 3702" class="cls-7" d="M234.776,213.615l4.01-9.691-21.72-13.694-9.146-28.281a6.394,6.394,0,0,0-7.213-4.326h0a6.394,6.394,0,0,0-4.861,8.528l7.014,24.573Z" transform="translate(-61.049 -31.102)"/>
    <path id="Caminho_3703" data-name="Caminho 3703" class="cls-8" d="M183.979,138.756c0,3.641,2.365,9.28,5.347,11.7,2.007,1.626,4.659,1.558,5.681-.668a26.485,26.485,0,0,1,11.028-11.028c8.483-4.5-3.008-12.2-11.028-11.028C188.981,128.61,183.979,132.665,183.979,138.756Z" transform="translate(-61.049 -31.102)"/>
    <circle id="Elipse_9" data-name="Elipse 9" class="cls-8" cx="6.684" cy="6.684" r="6.684" transform="translate(121.929 89.274)"/>
    <path id="Caminho_3704" data-name="Caminho 3704" class="cls-8" d="M197.347,124.72a6.68,6.68,0,0,0-6.182-6.658c.166-.012.332-.025.5-.025a6.684,6.684,0,0,1,0,13.368c-.169,0-.335-.013-.5-.025a6.68,6.68,0,0,0,6.182-6.658Z" transform="translate(-61.049 -31.102)"/>
    <ellipse id="Elipse_10" data-name="Elipse 10" class="cls-6" cx="1.504" cy="2.005" rx="1.504" ry="2.005" transform="translate(136.967 110.662)"/>
    <path id="Caminho_3705" data-name="Caminho 3705" class="cls-9" d="M327.843,268.005H223.8L201.765,163.851h-18.8v-4.673h22.592l22.033,104.154H327.843Z"/>
    <circle id="Elipse_11" data-name="Elipse 11" class="cls-9" cx="10.015" cy="10.015" r="10.015" transform="translate(229.03 267.004)"/>
    <circle id="Elipse_12" data-name="Elipse 12" class="cls-9" cx="10.015" cy="10.015" r="10.015" transform="translate(303.808 267.004)"/>
    <path id="Caminho_3706" data-name="Caminho 3706" class="cls-9" d="M387,296.907H285.764L267.9,208.64H403.757a4.8,4.8,0,0,1,4.741,5.544l-16.762,78.669a4.776,4.776,0,0,1-4.74,4.054Zm-100.131-1.335H387a3.446,3.446,0,0,0,3.421-2.926l16.762-78.669a3.463,3.463,0,0,0-3.422-4H269.524Z" transform="translate(-61.049 -31.102)"/>
    <path id="Caminho_3707" data-name="Caminho 3707" class="cls-9" d="M244.4,265.522l-11.7-87.208,1.317-.218,11.7,87.208Z"/>
    <path id="Caminho_3708" data-name="Caminho 3708" class="cls-9" d="M309.435,264.853l-1.318-.214,11.355-86.54,1.318.214Z"/>
    <rect id="Retângulo_1315" data-name="Retângulo 1315" class="cls-9" width="1.335" height="87.208" transform="translate(277.112 178.205)"/>
    <rect id="Retângulo_1316" data-name="Retângulo 1316" class="cls-9" width="1.335" height="129.258" transform="translate(213.672 202.907) rotate(-89.861)"/>
    <rect id="Retângulo_1317" data-name="Retângulo 1317" class="cls-9" width="113.558" height="1.335" transform="translate(220.258 243.599) rotate(-0.392)"/>
    <ellipse id="Elipse_13" data-name="Elipse 13" class="cls-9" cx="7.344" cy="4.006" rx="7.344" ry="4.006" transform="translate(177.621 156.84)"/>
  </g>
  <text id="Callout_text" data-name="Callout text" class="cls-10" transform="translate(352.754 328)"><tspan x="-279.066" y="0">Faça compras em</tspan><tspan x="-189.016" y="40">seu bairro...</tspan></text>
</svg>
